# xmcd
#
# Track frame offsets: 
#        182
#        16092
#        33462
#        51625
#        69670
#        89042
#        101920
#        119795
#        134800
#        153902
#        171767
#        190082
#
# Disc length: 2756 seconds
#
# Revision: 4
# Processed by: cddbd v1.4PL0 Copyright (c) Steve Scherf et al.
# Submitted via: ExactAudioCopy v0.95a3
#
DISCID=b40ac20c
DTITLE=Lila McCann - Something In The Air
DYEAR=1999
DGENRE=Country
TTITLE0=With You
TTITLE1=I Reckon I Will
TTITLE2=Kiss Me Now
TTITLE3=I Will Be
TTITLE4=Go Girl
TTITLE5=Rhymes With
TTITLE6=You're Gone
TTITLE7=Crush
TTITLE8=Something In The Air
TTITLE9=Hit By Love
TTITLE10=Can You Hear Me
TTITLE11=When You Walked Into My Life
EXTD=
EXTT0=
EXTT1=
EXTT2=
EXTT3=
EXTT4=
EXTT5=
EXTT6=
EXTT7=
EXTT8=
EXTT9=
EXTT10=
EXTT11=
PLAYORDER=
